<svg width="35" height="35" viewBox="0 0 35 35" fill="none" xmlns="http://www.w3.org/2000/svg">
<path d="M9.48274 10.172C9.48757 10.1237 9.48999 10.0995 9.49219 10.0786C9.91929 6.02322 13.3283 2.93806 17.4061 2.91661C17.4272 2.9165 17.4514 2.9165 17.5 2.9165C17.5485 2.9165 17.5728 2.9165 17.5938 2.91661C21.6716 2.93806 25.0806 6.02322 25.5077 10.0786C25.5099 10.0995 25.5123 10.1237 25.5172 10.172L25.9352 14.3518C26.0509 15.5095 26.1088 16.0884 26.2471 16.6462C26.3766 17.1682 26.5583 17.6758 26.7896 18.1613C27.0368 18.6801 27.3595 19.1641 28.0049 20.1322L30.0104 23.1404C30.9229 24.5092 31.3791 25.1936 31.0964 25.7217C30.8138 26.2498 29.9913 26.2498 28.3463 26.2498H6.65366C5.00863 26.2498 4.18612 26.2498 3.90347 25.7217C3.62082 25.1936 4.07706 24.5092 4.98956 23.1404L6.99502 20.1322C7.64043 19.1641 7.96314 18.6801 8.21028 18.1613C8.44159 17.6758 8.62334 17.1682 8.75279 16.6462C8.8911 16.0884 8.94899 15.5095 9.06476 14.3518L9.48274 10.172Z" fill="#FFFEFB"/>
<path d="M14.6827 30.0846C14.8489 30.2396 15.215 30.3766 15.7244 30.4743C16.2338 30.572 16.8579 30.625 17.5 30.625C18.142 30.625 18.7661 30.572 19.2755 30.4743C19.7849 30.3766 20.1511 30.2396 20.3172 30.0846" stroke="#FFFEFB" stroke-width="2" stroke-linecap="round"/>
</svg>
