<svg width="67" height="46" viewBox="0 0 67 46" fill="none" xmlns="http://www.w3.org/2000/svg">
<path d="M43.5 37.8333V8.94444C43.5 8.94444 41.2778 4.5 33.5 4.5C25.7222 4.5 23.5 11.1667 23.5 11.1667C23.5 11.1667 21.2778 4.5 13.5 4.5C5.72222 4.5 3.5 8.94444 3.5 8.94444V37.8333C3.5 37.8333 5.72222 33.3889 13.5 33.3889C21.2778 33.3889 23.5 37.8333 23.5 37.8333C23.5 37.8333 25.7222 33.3889 33.5 33.3889C41.2778 33.3889 43.5 37.8333 43.5 37.8333Z" fill="white"/>
<path d="M43.5 8.94444H44.5C44.5 8.7892 44.4639 8.63609 44.3944 8.49723L43.5 8.94444ZM43.5 37.8333L42.6056 38.2805C42.813 38.6954 43.2784 38.9131 43.7298 38.8066C44.1811 38.7 44.5 38.2971 44.5 37.8333H43.5ZM3.5 8.94444L2.60557 8.49723C2.53615 8.63609 2.5 8.7892 2.5 8.94444H3.5ZM3.5 37.8333H2.5C2.5 38.2971 2.81888 38.7 3.27025 38.8066C3.72162 38.9131 4.18702 38.6954 4.39443 38.2805L3.5 37.8333ZM23.5 37.8333L22.6056 38.2805C22.775 38.6193 23.1212 38.8333 23.5 38.8333C23.8788 38.8333 24.225 38.6193 24.3944 38.2805L23.5 37.8333ZM23.5 11.1667L22.5513 11.4829C22.6874 11.8912 23.0696 12.1667 23.5 12.1667C23.9304 12.1667 24.3126 11.8912 24.4487 11.4829L23.5 11.1667ZM43.5 8.94444H42.5V37.8333H43.5H44.5V8.94444H43.5ZM3.5 8.94444H2.5V37.8333H3.5H4.5V8.94444H3.5ZM43.5 37.8333C44.3944 37.3861 44.3941 37.3855 44.3938 37.3848C44.3937 37.3846 44.3933 37.3839 44.3931 37.3835C44.3926 37.3825 44.3921 37.3815 44.3915 37.3804C44.3904 37.3782 44.3892 37.3758 44.3878 37.373C44.385 37.3676 44.3816 37.3611 44.3776 37.3535C44.3696 37.3384 44.3592 37.3191 44.3463 37.2959C44.3204 37.2496 44.2844 37.1876 44.2373 37.1124C44.1433 36.9619 44.0049 36.7577 43.8153 36.5182C43.4359 36.039 42.8508 35.4176 42.0048 34.8024C40.3009 33.5631 37.5936 32.3889 33.5 32.3889V33.3889V34.3889C37.1842 34.3889 39.4769 35.4369 40.8285 36.4198C41.5103 36.9157 41.9668 37.4054 42.2472 37.7596C42.3874 37.9367 42.4835 38.0798 42.5413 38.1724C42.5702 38.2186 42.5895 38.2522 42.6 38.2709C42.6053 38.2803 42.6083 38.286 42.6092 38.2877C42.6096 38.2885 42.6095 38.2884 42.6089 38.2872C42.6086 38.2866 42.6082 38.2858 42.6076 38.2846C42.6074 38.2841 42.607 38.2835 42.6067 38.2828C42.6065 38.2825 42.6062 38.2819 42.6062 38.2817C42.6059 38.2811 42.6056 38.2805 43.5 37.8333ZM33.5 33.3889V32.3889C29.4064 32.3889 26.6991 33.5631 24.9952 34.8024C24.1492 35.4176 23.5641 36.039 23.1847 36.5182C22.9951 36.7577 22.8567 36.9619 22.7627 37.1124C22.7156 37.1876 22.6796 37.2496 22.6537 37.2959C22.6408 37.3191 22.6304 37.3384 22.6224 37.3535C22.6184 37.3611 22.615 37.3676 22.6122 37.373C22.6108 37.3758 22.6096 37.3782 22.6085 37.3804C22.6079 37.3815 22.6074 37.3825 22.6069 37.3835C22.6067 37.3839 22.6063 37.3846 22.6062 37.3848C22.6059 37.3855 22.6056 37.3861 23.5 37.8333C24.3944 38.2805 24.3941 38.2811 24.3938 38.2817C24.3938 38.2819 24.3935 38.2825 24.3933 38.2828C24.393 38.2835 24.3926 38.2841 24.3924 38.2846C24.3918 38.2858 24.3914 38.2866 24.3911 38.2872C24.3905 38.2884 24.3904 38.2885 24.3908 38.2877C24.3917 38.286 24.3947 38.2803 24.4 38.2709C24.4105 38.2522 24.4298 38.2186 24.4587 38.1724C24.5165 38.0798 24.6126 37.9367 24.7528 37.7596C25.0332 37.4054 25.4897 36.9157 26.1715 36.4198C27.5231 35.4369 29.8158 34.3889 33.5 34.3889V33.3889ZM23.5 37.8333C24.3944 37.3861 24.3941 37.3855 24.3938 37.3848C24.3937 37.3846 24.3933 37.3839 24.3931 37.3835C24.3926 37.3825 24.3921 37.3815 24.3915 37.3804C24.3904 37.3782 24.3892 37.3758 24.3878 37.373C24.385 37.3676 24.3816 37.3611 24.3776 37.3535C24.3696 37.3384 24.3592 37.3191 24.3463 37.2959C24.3204 37.2496 24.2844 37.1876 24.2373 37.1124C24.1433 36.9619 24.0049 36.7577 23.8153 36.5182C23.4359 36.039 22.8508 35.4176 22.0048 34.8024C20.3009 33.5631 17.5936 32.3889 13.5 32.3889V33.3889V34.3889C17.1842 34.3889 19.4769 35.4369 20.8285 36.4198C21.5103 36.9157 21.9668 37.4054 22.2472 37.7596C22.3874 37.9367 22.4835 38.0798 22.5413 38.1724C22.5702 38.2186 22.5895 38.2522 22.6 38.2709C22.6053 38.2803 22.6083 38.286 22.6092 38.2877C22.6096 38.2885 22.6095 38.2884 22.6089 38.2872C22.6086 38.2866 22.6082 38.2858 22.6076 38.2846C22.6074 38.2841 22.607 38.2835 22.6067 38.2828C22.6065 38.2825 22.6062 38.2819 22.6062 38.2817C22.6059 38.2811 22.6056 38.2805 23.5 37.8333ZM13.5 33.3889V32.3889C9.4064 32.3889 6.69915 33.5631 4.99516 34.8024C4.14921 35.4176 3.56406 36.039 3.1847 36.5182C2.99508 36.7577 2.85674 36.9619 2.76268 37.1124C2.71563 37.1876 2.67961 37.2496 2.65373 37.2959C2.64079 37.3191 2.63038 37.3384 2.62239 37.3535C2.6184 37.3611 2.61501 37.3676 2.61221 37.373C2.61081 37.3758 2.60956 37.3782 2.60845 37.3804C2.6079 37.3815 2.60738 37.3825 2.6069 37.3835C2.60666 37.3839 2.60633 37.3846 2.60621 37.3848C2.60589 37.3855 2.60557 37.3861 3.5 37.8333C4.39443 38.2805 4.39413 38.2811 4.39384 38.2817C4.39375 38.2819 4.39347 38.2825 4.3933 38.2828C4.39296 38.2835 4.39264 38.2841 4.39236 38.2846C4.3918 38.2858 4.39137 38.2866 4.39107 38.2872C4.39047 38.2884 4.39039 38.2885 4.39083 38.2877C4.39173 38.286 4.39475 38.2803 4.39998 38.2709C4.41045 38.2522 4.42977 38.2186 4.45868 38.1724C4.51653 38.0798 4.61256 37.9367 4.7528 37.7596C5.03316 37.4054 5.48968 36.9157 6.17151 36.4198C7.52308 35.4369 9.81582 34.3889 13.5 34.3889V33.3889ZM43.5 8.94444C44.3944 8.49723 44.3941 8.4966 44.3938 8.49596C44.3937 8.49572 44.3933 8.49505 44.3931 8.49458C44.3926 8.49362 44.3921 8.4926 44.3915 8.49151C44.3904 8.48933 44.3892 8.48688 44.3878 8.48415C44.385 8.47871 44.3816 8.47219 44.3776 8.46463C44.3696 8.4495 44.3592 8.43021 44.3463 8.40704C44.3204 8.36069 44.2844 8.29875 44.2373 8.22347C44.1433 8.07298 44.0049 7.86882 43.8153 7.6293C43.4359 7.15011 42.8508 6.52873 42.0048 5.91349C40.3009 4.67423 37.5936 3.5 33.5 3.5V4.5V5.5C37.1842 5.5 39.4769 6.548 40.8285 7.53096C41.5103 8.02683 41.9668 8.51655 42.2472 8.8707C42.3874 9.04785 42.4835 9.19091 42.5413 9.28347C42.5702 9.32973 42.5895 9.36327 42.6 9.38203C42.6053 9.3914 42.6083 9.39707 42.6092 9.39876C42.6096 9.39961 42.6095 9.39946 42.6089 9.39829C42.6086 9.39771 42.6082 9.39686 42.6076 9.39576C42.6074 9.39521 42.607 9.39459 42.6067 9.39391C42.6065 9.39356 42.6062 9.393 42.6062 9.39283C42.6059 9.39225 42.6056 9.39166 43.5 8.94444ZM33.5 4.5V3.5C29.2844 3.5 26.5296 5.32118 24.8462 7.15761C24.0122 8.06743 23.4447 8.97556 23.0844 9.65824C22.9038 10.0004 22.7739 10.2885 22.6876 10.4956C22.6444 10.5992 22.6121 10.6828 22.5897 10.743C22.5785 10.7731 22.5697 10.7973 22.5634 10.8154C22.5602 10.8244 22.5576 10.8319 22.5556 10.8377C22.5546 10.8407 22.5538 10.8432 22.553 10.8453C22.5527 10.8464 22.5524 10.8473 22.5521 10.8482C22.5519 10.8486 22.5517 10.8492 22.5517 10.8494C22.5515 10.8499 22.5513 10.8504 23.5 11.1667C24.4487 11.4829 24.4485 11.4834 24.4484 11.4838C24.4483 11.4839 24.4482 11.4843 24.4481 11.4845C24.448 11.485 24.4479 11.4853 24.4478 11.4856C24.4476 11.4861 24.4476 11.4862 24.4477 11.4859C24.4479 11.4854 24.4486 11.4833 24.4498 11.4797C24.4524 11.4725 24.4571 11.4594 24.464 11.4406C24.478 11.4032 24.501 11.3435 24.5338 11.2648C24.5994 11.1073 24.7039 10.8746 24.8531 10.5918C25.1526 10.0244 25.6267 9.26591 26.3205 8.50906C27.6926 7.01215 29.9378 5.5 33.5 5.5V4.5ZM23.5 11.1667C24.4487 10.8504 24.4485 10.8499 24.4483 10.8494C24.4483 10.8492 24.4481 10.8486 24.4479 10.8482C24.4476 10.8473 24.4473 10.8464 24.447 10.8453C24.4462 10.8432 24.4454 10.8407 24.4444 10.8377C24.4424 10.8319 24.4398 10.8244 24.4366 10.8154C24.4303 10.7973 24.4215 10.7731 24.4103 10.743C24.3879 10.6828 24.3556 10.5992 24.3124 10.4956C24.2261 10.2885 24.0962 10.0004 23.9156 9.65824C23.5553 8.97556 22.9878 8.06743 22.1538 7.15761C20.4704 5.32118 17.7156 3.5 13.5 3.5V4.5V5.5C17.0622 5.5 19.3073 7.01215 20.6795 8.50906C21.3733 9.26591 21.8474 10.0244 22.1469 10.5918C22.2961 10.8746 22.4006 11.1073 22.4662 11.2648C22.499 11.3435 22.522 11.4032 22.536 11.4406C22.5429 11.4594 22.5476 11.4725 22.5502 11.4797C22.5514 11.4833 22.5521 11.4854 22.5523 11.4859C22.5524 11.4862 22.5524 11.4861 22.5522 11.4856C22.5521 11.4853 22.552 11.485 22.5519 11.4845C22.5518 11.4843 22.5517 11.4839 22.5516 11.4838C22.5515 11.4834 22.5513 11.4829 23.5 11.1667ZM13.5 4.5V3.5C9.4064 3.5 6.69915 4.67423 4.99516 5.91349C4.14921 6.52873 3.56406 7.15011 3.1847 7.6293C2.99508 7.86882 2.85674 8.07298 2.76268 8.22347C2.71563 8.29875 2.67961 8.36069 2.65373 8.40704C2.64079 8.43021 2.63038 8.4495 2.62239 8.46463C2.6184 8.47219 2.61501 8.47871 2.61221 8.48415C2.61081 8.48688 2.60956 8.48933 2.60845 8.49151C2.6079 8.4926 2.60738 8.49362 2.6069 8.49458C2.60666 8.49505 2.60633 8.49572 2.60621 8.49596C2.60589 8.4966 2.60557 8.49723 3.5 8.94444C4.39443 9.39166 4.39413 9.39225 4.39384 9.39283C4.39375 9.393 4.39347 9.39356 4.3933 9.39391C4.39296 9.39459 4.39264 9.39521 4.39236 9.39576C4.3918 9.39686 4.39137 9.39771 4.39107 9.39829C4.39047 9.39946 4.39039 9.39961 4.39083 9.39876C4.39173 9.39707 4.39475 9.3914 4.39998 9.38203C4.41045 9.36327 4.42977 9.32973 4.45868 9.28347C4.51653 9.19091 4.61256 9.04785 4.7528 8.8707C5.03316 8.51655 5.48968 8.02683 6.17151 7.53096C7.52308 6.548 9.81582 5.5 13.5 5.5V4.5Z" fill="white"/>
</svg>
