<svg width="31" height="19" viewBox="0 0 31 19" fill="none" xmlns="http://www.w3.org/2000/svg">
<path d="M30.0836 5.0415C28.8304 5.0415 28.2033 5.04126 27.7203 5.33936C27.5805 5.42564 27.4521 5.52922 27.3375 5.64697C26.9418 6.05376 26.8057 6.66581 26.5338 7.88916L24.9459 15.0347C24.6123 16.536 24.4454 17.2872 23.8971 17.7271C23.3487 18.1668 22.5795 18.1665 21.0416 18.1665H9.95862C8.42076 18.1665 7.65153 18.1666 7.10315 17.7271C6.5548 17.2872 6.38794 16.536 6.05432 15.0347L4.46643 7.88916C4.19461 6.66597 4.05833 6.05376 3.66272 5.64697C3.54822 5.52929 3.41962 5.42562 3.27991 5.33936C2.79696 5.04125 2.16987 5.0415 0.916626 5.0415V0.666504H30.0836V5.0415ZM11.3824 7.79443C11.2917 7.24986 10.7766 6.88173 10.2321 6.97217C9.68739 7.06295 9.31919 7.57791 9.40979 8.12256L10.1393 12.4976C10.2302 13.0421 10.745 13.4106 11.2897 13.3198C11.8341 13.2289 12.2023 12.7138 12.1119 12.1694L11.3824 7.79443ZM20.7692 6.97217C20.2244 6.88137 19.7086 7.24966 19.6178 7.79443L18.8883 12.1694C18.7979 12.7139 19.1661 13.229 19.7106 13.3198C20.2551 13.4104 20.771 13.0421 20.8619 12.4976L21.5905 8.12256C21.681 7.57817 21.3134 7.06333 20.7692 6.97217Z" fill="#2F70AF"/>
</svg>
