<svg width="30" height="18" viewBox="0 0 30 18" fill="none" xmlns="http://www.w3.org/2000/svg">
<path d="M30 4.5C28.666 4.5 27.999 4.50011 27.4951 4.83594C27.3975 4.90101 27.3054 4.97453 27.2207 5.05566C26.7834 5.47469 26.639 6.12626 26.3496 7.42871L24.6963 14.8682C24.3626 16.3695 24.1958 17.1207 23.6475 17.5605C23.0991 18.0005 22.3293 18 20.791 18H9.20898C7.67074 18 6.90095 18.0005 6.35254 17.5605C5.80418 17.1207 5.63735 16.3695 5.30371 14.8682L3.65039 7.42871C3.36096 6.12626 3.21664 5.47469 2.7793 5.05566C2.6946 4.97453 2.60246 4.90101 2.50488 4.83594C2.001 4.50011 1.33396 4.5 0 4.5V0H30V4.5ZM10.7363 7.33594C10.6456 6.79127 10.1306 6.42307 9.58594 6.51367C9.04127 6.60445 8.67307 7.11941 8.76367 7.66406L9.51367 12.1641C9.60445 12.7087 10.1194 13.0769 10.6641 12.9863C11.2087 12.8956 11.5769 12.3806 11.4863 11.8359L10.7363 7.33594ZM20.4141 6.51367C19.8694 6.42298 19.3545 6.79122 19.2637 7.33594L18.5137 11.8359C18.4231 12.3806 18.7913 12.8955 19.3359 12.9863C19.8805 13.0768 20.3956 12.7087 20.4863 12.1641L21.2363 7.66406C21.3269 7.11942 20.9587 6.60445 20.4141 6.51367Z" fill="white"/>
</svg>
