<svg width="30" height="29" viewBox="0 0 30 29" fill="none" xmlns="http://www.w3.org/2000/svg">
<path d="M17.5915 2.09406L20.2312 7.23967C20.5911 7.95596 21.551 8.64302 22.3609 8.77458L27.1454 9.54935C30.2051 10.0464 30.925 12.2099 28.7202 14.3441L25.0006 17.9694C24.3707 18.5834 24.0257 19.7675 24.2207 20.6153L25.2856 25.1031C26.1255 28.6553 24.1907 30.0295 20.9661 28.1729L16.4816 25.5855C15.6717 25.1177 14.3368 25.1177 13.5119 25.5855L9.0274 28.1729C5.81776 30.0295 3.86797 28.6407 4.70788 25.1031L5.77276 20.6153C5.96774 19.7675 5.62278 18.5834 4.99285 17.9694L1.27326 14.3441C-0.9165 12.2099 -0.211578 10.0464 2.84808 9.54935L7.63256 8.77458C8.42747 8.64302 9.38736 7.95596 9.74732 7.23967L12.387 2.09406C13.8269 -0.698019 16.1666 -0.698019 17.5915 2.09406Z" fill="#FABD20"/>
</svg>
