<svg width="30" height="31" viewBox="0 0 30 31" fill="none" xmlns="http://www.w3.org/2000/svg">
<path d="M17.5915 2.78312L20.2312 8.07775C20.5911 8.81479 21.551 9.52174 22.3609 9.65712L27.1454 10.4543C30.2051 10.9657 30.925 13.1919 28.7202 15.388L25.0006 19.1183C24.3707 19.75 24.0257 20.9684 24.2207 21.8408L25.2856 26.4585C26.1255 30.1136 24.1907 31.5276 20.9661 29.6173L16.4816 26.9549C15.6717 26.4736 14.3368 26.4736 13.5119 26.9549L9.0274 29.6173C5.81776 31.5276 3.86797 30.0986 4.70788 26.4585L5.77276 21.8408C5.96774 20.9684 5.62278 19.75 4.99285 19.1183L1.27326 15.388C-0.9165 13.1919 -0.211578 10.9657 2.84808 10.4543L7.63256 9.65712C8.42747 9.52174 9.38736 8.81479 9.74732 8.07775L12.387 2.78312C13.8269 -0.0898166 16.1666 -0.0898166 17.5915 2.78312Z" fill="#FABD20"/>
</svg>
