<svg width="25" height="26" viewBox="0 0 25 26" fill="none" xmlns="http://www.w3.org/2000/svg">
<path d="M14.6595 2.6369L16.8593 7.04909C17.1593 7.66329 17.9592 8.25241 18.6341 8.36522L22.6212 9.02956C25.1709 9.45574 25.7708 11.3109 23.9335 13.1409L20.8339 16.2495C20.3089 16.776 20.0215 17.7913 20.1839 18.5183L21.0713 22.3664C21.7713 25.4123 20.1589 26.5906 17.4717 24.9987L13.7346 22.7801C13.0597 22.379 11.9473 22.379 11.2599 22.7801L7.52283 24.9987C4.84813 26.5906 3.22331 25.3998 3.92323 22.3664L4.81063 18.5183C4.97312 17.7913 4.68565 16.776 4.16071 16.2495L1.06105 13.1409C-0.76375 11.3109 -0.176315 9.45574 2.3734 9.02956L6.36046 8.36522C7.02289 8.25241 7.8228 7.66329 8.12277 7.04909L10.3225 2.6369C11.5224 0.24278 13.4722 0.24278 14.6595 2.6369Z" fill="#FABD20"/>
</svg>
