<svg width="32" height="31" viewBox="0 0 32 31" fill="none" xmlns="http://www.w3.org/2000/svg">
<path d="M18.5915 3.09406L21.2312 8.23967C21.5911 8.95596 22.551 9.64302 23.3609 9.77458L28.1454 10.5493C31.2051 11.0464 31.925 13.2099 29.7202 15.3441L26.0006 18.9694C25.3707 19.5834 25.0257 20.7675 25.2207 21.6153L26.2856 26.1031C27.1255 29.6553 25.1907 31.0295 21.9661 29.1729L17.4816 26.5855C16.6717 26.1177 15.3368 26.1177 14.5119 26.5855L10.0274 29.1729C6.81776 31.0295 4.86797 29.6407 5.70788 26.1031L6.77276 21.6153C6.96774 20.7675 6.62278 19.5834 5.99285 18.9694L2.27326 15.3441C0.0834999 13.2099 0.788422 11.0464 3.84808 10.5493L8.63256 9.77458C9.42747 9.64302 10.3874 8.95596 10.7473 8.23967L13.387 3.09406C14.8269 0.301981 17.1666 0.301981 18.5915 3.09406Z" fill="white" stroke="black" stroke-linecap="round" stroke-linejoin="round"/>
</svg>
